<svg xmlns="http://www.w3.org/2000/svg" width="430" height="430" fill="none" viewBox="0 0 430 430"><mask id="9OkA--wvoDa" width="330" height="305" x="50" y="60" maskUnits="userSpaceOnUse" style="mask-type:alpha"><path fill="#D9D9D9" fill-rule="evenodd" d="m150 98-35.26-16.23L104.295 60H380v305H50V100.291l30.416 13.939L97.578 150l17.162-35.77zm164.125 158.962L366 280.419l-51.875 23.619L288.919 356l-25.044-51.962L212 280.419l51.875-23.457L288.919 205z" clip-rule="evenodd"/><path fill="#D9D9D9" d="m50 95.709 30.416-13.94L90.861 60H50z"/></mask><g mask="url(#9OkA--wvoDa)"><path stroke="#db7353" stroke-linecap="round" stroke-linejoin="round" stroke-miterlimit="14" stroke-width="18" d="M342.592 228.162C360.197 210.529 369 187.43 369 164.33c0-23.099-8.803-46.198-26.408-63.831-14.965-15.164-33.979-23.716-53.61-25.92-26.32-2.997-53.697 5.643-73.855 25.92l-.088.089-.089-.089c-17.605-17.632-40.669-26.449-63.732-26.449s-46.127 8.817-63.732 26.449c-35.3 35.178-35.3 92.397-.089 127.663L215.04 356z"/></g><path stroke="#d9534f" stroke-linecap="round" stroke-linejoin="round" stroke-miterlimit="10" stroke-width="18" d="M314.125 256.962 366 280.419l-51.875 23.619L288.919 356l-25.044-51.962L212 280.419l51.875-23.457L288.919 205zM114.74 81.77 150 98l-35.26 16.23L97.578 150l-17.162-35.77L45 98l35.416-16.23L97.578 46z"/></svg>